# xmcd CD database file generated by LOLA_Freedb v0.9beta0
# 
# Track frame offsets:
#      150
#      19757
#      37047
#      49294
#      70436
#      86437
#      112468
#      125474
#      142062
#      161066
# 
# Disc length: 2413 seconds
# 
# Revision: 0 
# Processed by: cddbd v1.5.1PL2 Copyright (c) Steve Scherf et al.
# Submitted via: LOLA_Freedb v0.9beta0
# 
DISCID=98096b0a
DTITLE=Udo Jürgens - Udo live
DYEAR=1968
DGENRE=
TTITLE0=Immer wieder geht die Sonne auf
TTITLE1=Schau nicht hin
TTITLE2=Wahre Liebe ist ganz leise
TTITLE3=Maria
TTITLE4=Lonesome road
TTITLE5=Matador
TTITLE6=Dein letzter Brief
TTITLE7=The house of the rising sun
TTITLE8=Ich glaube
TTITLE9=Es wird Nacht
EXTD=live
EXTT0=
EXTT1=
EXTT2=
EXTT3=
EXTT4=
EXTT5=
EXTT6=
EXTT7=
EXTT8=
EXTT9=
PLAYORDER=
